<?xml version="1.0" encoding="UTF-8" standalone="no"?>
<svg
   id="Layer_1"
   data-name="Layer 1"
   viewBox="0 150 2000 625"
   version="1.1"
   sodipodi:docname="AboutUs.svg"
   inkscape:version="1.3 (0e150ed, 2023-07-21)"
   xmlns:inkscape="http://www.inkscape.org/namespaces/inkscape"
   xmlns:sodipodi="http://sodipodi.sourceforge.net/DTD/sodipodi-0.dtd"
   xmlns="http://www.w3.org/2000/svg"
   xmlns:svg="http://www.w3.org/2000/svg">
  <sodipodi:namedview
     id="namedview4"
     pagecolor="#ffffff"
     bordercolor="#000000"
     borderopacity="0.25"
     inkscape:showpageshadow="2"
     inkscape:pageopacity="0.0"
     inkscape:pagecheckerboard="0"
     inkscape:deskcolor="#d1d1d1"
     inkscape:zoom="0.3776"
     inkscape:cx="999.73517"
     inkscape:cy="312.5"
     inkscape:window-width="1512"
     inkscape:window-height="945"
     inkscape:window-x="0"
     inkscape:window-y="37"
     inkscape:window-maximized="0"
     inkscape:current-layer="Layer_1" />
  <defs
     id="defs1">
    <style
       id="style1">&#10;      .cls-1 {&#10;        fill: #7f7f7f;&#10;      }&#10;&#10;      .cls-2 {&#10;        fill: rgb(241,146,190);&#10;      }&#10;    </style>
  </defs>
  <g
     id="g3">
    <path
       class="cls-1"
       d="m291,314.46s-.06,0-.08.01c.05,0,.08-.01.08-.01Z"
       id="path1" />
    <path
       class="cls-1"
       d="m1881.33,583.44h0"
       id="path2" />
    <path
       class="cls-1"
       d="m1398.01,692.82c23.29-.13,47.05-.13,70.34-.26,22.48-.12,43.19.21,65.68.09,20.92-.11,41.82.11,62.75,0,18.62-.1,39.82.23,58.44.13,15.57-.08,31.16.21,46.72.12,11.76-.06,22.43-.04,34.19-.11,7.46-.04,17.96,0,25.41,0,24.76.02,45.38-7.52,60.3-29.52,1.84-2.71,6.97-9.88,9.03-12.39,2.06-2.52,4.65-4.7,7.7-5.53,10.36-2.8,17.46,11.98,26.99,13.89.47.09,3.04.47,4.55.23s4.09-1.74,4.6-2.1c2.89-2.03,4.97-5.35,6.47-7.77,2-3.24,12.8-26.3,14.75-29.58,2.8-4.72,2.94-4.76,5.53-9.62,1.24-2.32-5.25,2.51-4.58-.19-7.7,6.7-4.52-2.46-9.37,6.6-1.2,2.24-9.75,20.32-11.11,22.61s-5.57,6.37-8.01,6.53c-2.6.16-5.07-1.22-7.11-2.93-5.2-4.35-9.69-9.17-16.42-10.81-8.18-1.99-14.39,2.96-20.11,8.39-6.34,6.02-12.13,12.64-17.88,19.28-2.2,2.54-4.44,5.12-7.16,7-.33.23-.67.45-1.01.66-2.33,1.4-8.52,5.41-11.12,6.1-9.55,2.53-18.78,3.07-28.58,3.09,0,0-1428.63.89-1428.63.89-3.19,0-7.47,1.36-12.35,2.81-1.99.59-8.57,2.49-9.14,2.51-34.47.65-39.87-58.01-113.49,8.75-11.01,9.98-25.65,25.27-38.69,31.6-22.67,11.02-51.2.42-59.68-16.03-17.32-33.59-9.68-62.18-5.29-74.25,3.5-9.62,26.1-55.29,36.93-77.02,1.62-3.26,4.94-4.97,8.33-4.45,16.31,2.47,36.16-4.13,57.68-21,12.65-9.91,25-21.87,35.23-34.68,0,0-.51-1.67-1.42-3.68,67.93-77.96,93.05-135.45,87.01-152.84-7.29-21.01-28.83-28.65-28.26-28.99-.08.02-.22.04-.4.09.3-2.28-.05-4.58-2.29-6.07-2.8-1.86-8.43-5.23-14.91-7.93-6.99-2.91-14.71,1.98-15.79,9.82-1.51,11.57.76,11.29.76,11.29,0,0,8.98,5.3,23.24,7.5.6.09,1.19-.06,1.77-.38,4.21-2.37,9.1-3.12,13.22-.57,4.7,2.9,10.11,7.63,13.69,15.24,6.23,13.21-7.83,46.74-48.28,99.19-1.24,1.61-2.77,3.04-4.48,4.06-.94.57-1.55,1.15-1.55,1.15l-.7.86-.29-.35s-3.23,3.07-8.76,7.42c-23.46,18.44-57.77,36.33-87.43,25.67-33.62-12.08-37.85-44.46-30.54-75.06,1.58-6.59,3.18-10.77,3.18-10.77l-.51-.22c-.03-.61-.08-1.18-.14-1.73-.22-2.05-.05-4.17.65-6.1,27.5-76.18,52.81-95.11,57.18-97.13,3.87-1.78,21.98,1.91,31.32,3.99.53.12.84.61.84,1.19.03,3.83,1.95,7.44,4.93,9.72,5.2,3.98,13.25,8.96,16.99,9.92,5.29,1.36,7.72-2.17,9.23-5.15,1.51-2.99,3.94-14.19-1.76-17.98-10.23-6.78-21.73-8.96-21.73-8.96,0,0-1.18.35-2.61,1.4-7.73-1.72-23.02-4.9-28.33-4.3-7.23.81-13.24,0-19.72,7.79-6.15,7.4-31.8,29.58-56.73,96.86-1.11.43-1.85.93-1.85.93l-7.59,22.52s.46.05,1.17.37c-3.32,10.06-5.8,18.16-7.39,24.04-2.1.26-3.81.7-3.81.7,0,0-4.69,21.7-4.34,46.55.37,26.11,6.27,46.09,16.23,59.02,3.41,4.43,3.84,10.6,1.33,15.66-3.45,6.94-7.74,15.58-12.14,24.55-23.29,47.43-46.29,85.71-17.53,141.48,13.76,26.69,53.04,38.66,82.71,24.24,32.45-15.77,62.8-70.71,101.01-57.51,20.9,7.22,35.95,21.63,58.37,11.37,4.17-1.91,12.68-1.81,17.21-1.77"
       id="path3" />
  </g>
  <path
     class="cls-2"
     d="m1894.1,622.76c38.79-22.52,73.54-46.38,70.95-74.78-1.44-15.79-11.79-25.22-25.01-27.93-.92-.19-1.82-.34-2.71-.47-13.42-1.86-23.58,3.61-30.45,13.24-3.75-10.67-11.74-19.2-24.43-20.95-1.2-.17-2.45-.27-3.73-.31-14.82-.47-26.59,6.24-31.8,18.68-10.68,25.5,13.92,60.21,47.17,92.51Z"
     id="path4" />
  <path
     style="font-size:375px;font-family:Baskerville;-inkscape-font-specification:'Baskerville, Normal'"
     d="m 461.40125,537.70227 h -94.29932 l -6.40869,15.74707 q -14.28223,34.24072 -14.28223,44.67774 0,11.16943 7.50732,17.0288 7.69043,5.67627 19.59229,5.67627 v 8.42285 h -73.7915 v -8.42285 q 16.47949,-2.56347 24.53613,-11.53564 8.05664,-9.15527 19.40918,-38.26904 0.91553,-2.74659 8.78906,-21.24024 l 72.14356,-172.30224 h 7.14111 l 82.94678,197.20459 11.35254,26.00097 q 3.84521,8.78906 10.2539,13.91602 6.5918,4.94385 19.59229,6.22558 v 8.42285 h -97.59522 v -8.42285 q 17.94434,0 24.16992,-2.56347 6.4087,-2.74659 6.4087,-10.62012 0,-4.02832 -8.42286,-23.98682 z m -3.1128,-8.23975 -43.94531,-105.83496 -43.76221,105.83496 z m 131.28662,105.83497 h -7.14111 v -200.6836 q 0,-21.97265 -1.28174,-28.38135 -1.09863,-6.40869 -6.04248,-9.52148 -4.76074,-3.11279 -16.8457,-3.11279 v -8.42285 q 10.80322,0 26.00097,-2.56348 15.19776,-2.56348 20.69092,-5.12695 h 3.84522 v 118.65234 q 12.81738,-11.53565 26.00097,-17.21191 13.1836,-5.67627 26.7334,-5.67627 32.40967,0 53.10059,22.52197 20.69092,22.52197 20.69092,57.49512 0,35.15625 -21.24024,58.59375 -21.24023,23.4375 -55.11474,23.4375 -16.6626,0 -29.29688,-6.95801 -12.45117,-6.95801 -20.87402,-20.69092 -11.90186,11.90186 -19.22608,27.64893 z m 19.22608,-128.35694 v 58.77686 q 0,22.70508 2.92968,32.77588 3.1128,9.88769 14.64844,19.04296 11.53565,9.15528 26.91651,9.15528 23.6206,0 37.53662,-19.40918 14.09912,-19.40918 14.09912,-55.84717 0,-33.5083 -13.1836,-50.90332 -13.00048,-17.57812 -34.79003,-17.57812 -12.45118,0 -24.53614,6.04248 -11.90185,5.85937 -23.6206,17.94433 z m 153.9917,47.05811 q 0,-34.42383 23.07129,-57.49512 23.07128,-23.25439 56.76269,-23.25439 33.87451,0 56.9458,23.25439 23.07129,23.25439 23.07129,57.49512 0,37.90283 -23.4375,59.69238 -23.4375,21.60645 -56.57959,21.60645 -33.14209,0 -56.57959,-21.97266 -23.25439,-22.15576 -23.25439,-59.32617 z m 30.3955,0.91552 q 0,39.917 13.00049,56.03028 13.00049,15.93017 36.43799,15.93017 23.98682,0 36.62109,-15.93017 12.81739,-16.11328 12.81739,-56.03028 0,-39.55078 -12.63428,-56.39648 -12.63428,-16.8457 -36.8042,-16.8457 -23.98682,0 -36.8042,16.8457 -12.63428,16.6626 -12.63428,56.39648 z m 306.15235,-75.62255 v 98.32763 q 0,24.53614 0.7324,30.76172 0.7324,6.22559 5.3101,9.33838 4.7607,3.11279 16.8457,3.11279 v 8.42285 q -27.832,0.36622 -40.6494,5.85938 h -2.1973 q -5.8594,-10.0708 -6.2256,-34.79004 -11.1694,17.39502 -25.6347,26.18408 -14.2823,8.78907 -31.6773,8.78907 -15.0146,0 -26.55029,-6.77491 -11.53564,-6.958 -15.93017,-16.8457 -4.21143,-9.8877 -4.21143,-29.84619 v -51.08643 q 0,-26.00097 -0.91553,-31.67724 -0.91552,-5.85938 -5.85937,-8.60596 -4.76074,-2.74658 -17.76123,-2.74658 v -8.42285 h 50.90332 v 104.0039 q 0,15.38086 1.83105,22.33887 1.83106,6.95801 9.33835,12.26807 7.5074,5.12695 17.3951,5.12695 14.0991,0 26.9165,-9.15527 12.8173,-9.33838 17.395,-19.59229 4.7607,-10.43701 4.7607,-29.66309 v -33.87451 q 0,-24.53613 -0.5493,-29.84619 -0.5493,-5.31006 -4.7607,-9.15527 -4.0284,-4.02832 -17.0289,-4.02832 h -3.8452 v -8.42285 z m 135.3149,8.42285 h -45.227 v 90.6372 q 0,20.87403 1.831,28.19825 1.8311,7.14111 7.6905,11.53564 6.0425,4.39453 12.8174,4.39453 13.1835,0 22.8881,-15.01465 l 5.8594,3.47901 q -5.6763,12.08496 -16.8457,18.31054 -10.9863,6.04249 -22.3389,6.04249 -13.1835,0 -23.2544,-7.69043 -9.8876,-7.87354 -12.4511,-18.31055 -2.3804,-10.43701 -2.3804,-36.62109 v -84.96094 h -21.7895 v -8.42285 q 15.0146,-0.36621 26.9165,-12.63428 11.9018,-12.26807 15.1977,-34.42383 h 5.8594 v 47.05811 h 45.227 z m 298.2788,-106.75049 h 82.9468 v 8.42285 q -16.4795,1.09863 -24.7192,7.50733 -8.0567,6.22558 -9.8877,14.09912 -1.8311,7.87353 -1.8311,30.57861 v 82.58057 q 0,31.67724 -2.5634,47.0581 -2.3804,15.38086 -14.2823,30.2124 -11.7187,14.83155 -33.1421,23.62061 -21.4233,8.78906 -49.4384,8.78906 -33.1421,0 -56.2134,-11.16943 -22.8882,-11.35254 -32.7759,-29.11377 -9.7046,-17.94434 -9.7046,-47.97363 l 0.1831,-25.45166 v -77.27051 q 0,-29.66309 -1.831,-38.26905 -1.648,-8.60595 -7.3242,-11.90185 -5.4932,-3.2959 -24.3531,-3.2959 h -5.6762 v -8.42285 h 113.3422 v 8.42285 h -4.9438 q -18.3106,0 -23.9868,3.11279 -5.6763,2.92969 -7.6905,11.16944 -1.831,8.23974 -1.831,39.18457 v 78.18603 q 0,40.64942 3.6621,57.67823 3.8452,17.0288 21.2402,29.84619 17.3951,12.63427 46.3257,12.63427 22.7051,0 41.1987,-8.42285 18.6768,-8.60595 27.649,-21.24023 9.1552,-12.81738 11.1694,-26.18408 2.0142,-13.54981 2.0142,-42.48047 V 438.276 q 0,-21.05713 -2.3804,-29.47998 -2.3804,-8.42285 -10.2539,-13.3667 -7.8735,-4.94385 -24.9024,-6.04248 z m 106.2012,253.05176 v -49.25537 h 7.1411 q 12.4512,42.66357 44.4947,42.66357 13.916,0 20.6909,-8.42285 6.958,-8.42285 6.958,-18.49365 0,-11.71875 -7.3242,-19.22608 -7.5074,-7.50732 -29.1138,-18.12744 -22.7051,-11.16943 -32.5928,-21.97266 -9.8877,-10.62011 -9.8877,-26.18408 0,-14.83154 10.6201,-28.19824 10.6202,-13.5498 29.8462,-13.5498 19.5923,0 32.4097,15.93017 2.7466,-2.74658 7.1411,-13.3667 h 6.7749 v 46.32569 h -6.7749 q -3.6621,-16.6626 -14.2822,-28.56446 -10.437,-12.08496 -24.7192,-12.08496 -10.9864,0 -17.7613,6.7749 -6.7749,6.77491 -6.7749,15.74707 0,9.8877 7.5073,17.02881 7.3243,7.32422 28.0152,16.6626 31.1279,14.09912 38.0859,27.46582 6.958,13.54981 6.958,26.00098 0,19.59228 -13.0005,31.86035 -12.8173,12.26807 -32.4096,12.26807 -20.6909,0 -36.8042,-17.02881 -4.9439,5.49316 -8.0567,15.74707 z"
     id="text4"
     aria-label="About Us" />
</svg>
