<?xml version="1.0" encoding="UTF-8" standalone="no"?>
<svg
   id="Layer_1"
   data-name="Layer 1"
   viewBox="0 150 2000 625"
   version="1.1"
   sodipodi:docname="AboutUs.svg"
   inkscape:version="1.3 (0e150ed, 2023-07-21)"
   xmlns:inkscape="http://www.inkscape.org/namespaces/inkscape"
   xmlns:sodipodi="http://sodipodi.sourceforge.net/DTD/sodipodi-0.dtd"
   xmlns="http://www.w3.org/2000/svg"
   xmlns:svg="http://www.w3.org/2000/svg">
  <sodipodi:namedview
     id="namedview4"
     pagecolor="#ffffff"
     bordercolor="#000000"
     borderopacity="0.25"
     inkscape:showpageshadow="2"
     inkscape:pageopacity="0.0"
     inkscape:pagecheckerboard="0"
     inkscape:deskcolor="#d1d1d1"
     inkscape:zoom="0.3776"
     inkscape:cx="999.73517"
     inkscape:cy="312.5"
     inkscape:window-width="1512"
     inkscape:window-height="945"
     inkscape:window-x="0"
     inkscape:window-y="37"
     inkscape:window-maximized="0"
     inkscape:current-layer="Layer_1" />
  <defs
     id="defs1">
    <style
       id="style1">&#10;      .cls-1 {&#10;        fill: #7f7f7f;&#10;      }&#10;&#10;      .cls-2 {&#10;        fill: rgb(241,146,190);&#10;      }&#10;    </style>
  </defs>
  <g
     id="g3">
    <path
       class="cls-1"
       d="m291,314.46s-.06,0-.08.01c.05,0,.08-.01.08-.01Z"
       id="path1" />
    <path
       class="cls-1"
       d="m1881.33,583.44h0"
       id="path2" />
    <path
       class="cls-1"
       d="m1398.01,692.82c23.29-.13,47.05-.13,70.34-.26,22.48-.12,43.19.21,65.68.09,20.92-.11,41.82.11,62.75,0,18.62-.1,39.82.23,58.44.13,15.57-.08,31.16.21,46.72.12,11.76-.06,22.43-.04,34.19-.11,7.46-.04,17.96,0,25.41,0,24.76.02,45.38-7.52,60.3-29.52,1.84-2.71,6.97-9.88,9.03-12.39,2.06-2.52,4.65-4.7,7.7-5.53,10.36-2.8,17.46,11.98,26.99,13.89.47.09,3.04.47,4.55.23s4.09-1.74,4.6-2.1c2.89-2.03,4.97-5.35,6.47-7.77,2-3.24,12.8-26.3,14.75-29.58,2.8-4.72,2.94-4.76,5.53-9.62,1.24-2.32-5.25,2.51-4.58-.19-7.7,6.7-4.52-2.46-9.37,6.6-1.2,2.24-9.75,20.32-11.11,22.61s-5.57,6.37-8.01,6.53c-2.6.16-5.07-1.22-7.11-2.93-5.2-4.35-9.69-9.17-16.42-10.81-8.18-1.99-14.39,2.96-20.11,8.39-6.34,6.02-12.13,12.64-17.88,19.28-2.2,2.54-4.44,5.12-7.16,7-.33.23-.67.45-1.01.66-2.33,1.4-8.52,5.41-11.12,6.1-9.55,2.53-18.78,3.07-28.58,3.09,0,0-1428.63.89-1428.63.89-3.19,0-7.47,1.36-12.35,2.81-1.99.59-8.57,2.49-9.14,2.51-34.47.65-39.87-58.01-113.49,8.75-11.01,9.98-25.65,25.27-38.69,31.6-22.67,11.02-51.2.42-59.68-16.03-17.32-33.59-9.68-62.18-5.29-74.25,3.5-9.62,26.1-55.29,36.93-77.02,1.62-3.26,4.94-4.97,8.33-4.45,16.31,2.47,36.16-4.13,57.68-21,12.65-9.91,25-21.87,35.23-34.68,0,0-.51-1.67-1.42-3.68,67.93-77.96,93.05-135.45,87.01-152.84-7.29-21.01-28.83-28.65-28.26-28.99-.08.02-.22.04-.4.09.3-2.28-.05-4.58-2.29-6.07-2.8-1.86-8.43-5.23-14.91-7.93-6.99-2.91-14.71,1.98-15.79,9.82-1.51,11.57.76,11.29.76,11.29,0,0,8.98,5.3,23.24,7.5.6.09,1.19-.06,1.77-.38,4.21-2.37,9.1-3.12,13.22-.57,4.7,2.9,10.11,7.63,13.69,15.24,6.23,13.21-7.83,46.74-48.28,99.19-1.24,1.61-2.77,3.04-4.48,4.06-.94.57-1.55,1.15-1.55,1.15l-.7.86-.29-.35s-3.23,3.07-8.76,7.42c-23.46,18.44-57.77,36.33-87.43,25.67-33.62-12.08-37.85-44.46-30.54-75.06,1.58-6.59,3.18-10.77,3.18-10.77l-.51-.22c-.03-.61-.08-1.18-.14-1.73-.22-2.05-.05-4.17.65-6.1,27.5-76.18,52.81-95.11,57.18-97.13,3.87-1.78,21.98,1.91,31.32,3.99.53.12.84.61.84,1.19.03,3.83,1.95,7.44,4.93,9.72,5.2,3.98,13.25,8.96,16.99,9.92,5.29,1.36,7.72-2.17,9.23-5.15,1.51-2.99,3.94-14.19-1.76-17.98-10.23-6.78-21.73-8.96-21.73-8.96,0,0-1.18.35-2.61,1.4-7.73-1.72-23.02-4.9-28.33-4.3-7.23.81-13.24,0-19.72,7.79-6.15,7.4-31.8,29.58-56.73,96.86-1.11.43-1.85.93-1.85.93l-7.59,22.52s.46.05,1.17.37c-3.32,10.06-5.8,18.16-7.39,24.04-2.1.26-3.81.7-3.81.7,0,0-4.69,21.7-4.34,46.55.37,26.11,6.27,46.09,16.23,59.02,3.41,4.43,3.84,10.6,1.33,15.66-3.45,6.94-7.74,15.58-12.14,24.55-23.29,47.43-46.29,85.71-17.53,141.48,13.76,26.69,53.04,38.66,82.71,24.24,32.45-15.77,62.8-70.71,101.01-57.51,20.9,7.22,35.95,21.63,58.37,11.37,4.17-1.91,12.68-1.81,17.21-1.77"
       id="path3" />
  </g>
  <path
     class="cls-2"
     d="m1894.1,622.76c38.79-22.52,73.54-46.38,70.95-74.78-1.44-15.79-11.79-25.22-25.01-27.93-.92-.19-1.82-.34-2.71-.47-13.42-1.86-23.58,3.61-30.45,13.24-3.75-10.67-11.74-19.2-24.43-20.95-1.2-.17-2.45-.27-3.73-.31-14.82-.47-26.59,6.24-31.8,18.68-10.68,25.5,13.92,60.21,47.17,92.51Z"
     id="path4" />
  <path
     d="m 583.3093,648.44147 v -7.125 c -19.5,-2.25 -24.75,-10.125 -35.25,-34.5 l -92.25,-211.125 h -7.5 l -77.25,183 c -22.125,52.5 -25.5,60.375 -47.25,62.625 v 7.125 h 74.625 v -7.125 c -18,0 -26.25,-3.75 -26.25,-15.375 0,-4.5 1.5,-10.875 3.375,-15.75 l 17.25,-42.75 h 98.25 l 15.375,35.25 c 4.5,10.5 7.125,20.625 7.125,26.25 0,3.375 -2.25,7.5 -5.25,9 -4.5,2.625 -7.125,3.375 -20.625,3.375 v 7.125 z m -97.5,-96.375 h -86.625 l 43.125,-103.125 z m 155.24862,-159 -1.875,-0.75 c -15.75,5.625 -25.5,7.875 -43.125,13.125 l -11.25,3.375 v 6.375 c 1.875,-0.375 3.75,-0.75 6.375,-0.75 15.375,0 18.375,3 18.375,21.75 v 191.25 c 0,12.75 31.5,24.75 61.875,24.75 49.5,0 87.75,-38.25 87.75,-93.75 0,-46.5 -27.375,-82.5 -67.5,-82.5 -22.875,0 -42.75,12.375 -50.625,31.5 z m 0,136.125 c 0,-15.75 17.25,-29.625 37.125,-29.625 13.5,0 25.5,6.375 33.375,17.625 9.375,13.125 14.625,34.875 14.625,57.375 0,21.75 -4.875,38.25 -13.875,49.5 -8.25,10.5 -20.25,16.125 -34.875,16.125 -19.5,0 -36.375,-7.5 -36.375,-19.5 z m 306.3743,32.625 c 0,-51.75 -35.25,-85.875 -81,-85.875 -50.625,0 -84.375,34.875 -84.375,87 0,52.125 35.625,89.25 81,89.25 50.625,0 84.375,-38.25 84.375,-90.375 z m -33.75,10.125 c 0,43.5 -16.5,69.75 -44.25,69.75 -13.5,0 -25.5,-6.75 -33.75,-18.75 -13.875,-20.25 -19.875,-47.25 -19.875,-76.875 0,-37.5 17.625,-59.625 43.5,-59.625 16.125,0 26.625,7.5 35.625,18.75 12,15.375 18.75,41.25 18.75,66.75 z m 224.99928,57.75 h -2.25 c -17.25,0 -21.375,-4.125 -21.375,-21.375 v -128.625 h -59.25 v 6.375 c 22.5,1.5 27.75,4.5 27.75,24.375 v 86.625 c 0,13.125 -2.625,16.5 -8.625,21.75 -9.375,8.25 -20.625,11.625 -31.5,11.625 -14.625,0 -26.625,-12.375 -26.625,-29.625 v -121.125 h -54.75001 v 5.25 c 18,1.125 23.25,6.375 23.25,25.125 v 94.125 c 0,28.875 16.87501,48 45.75001,48 13.875,0 35.25,-7.125 53.625,-32.25 h 0.75 v 30.75 l 1.875,1.125 c 18.75,-7.5 32.25,-11.625 51.375,-16.875 z m 107.2493,-10.125 c -8.25,9.75 -14.25,13.125 -22.5,13.125 -13.875,0 -19.5,-9.75 -19.5,-33.75 v -107.25 h 37.875 v -12 h -37.875 v -43.5 c 0,-3.75 -0.75,-4.875 -2.625,-4.875 -2.25,3.75 -5.25,7.125 -7.5,10.5 -14.25,20.625 -26.625,34.5 -36.375,40.125 -4.125,2.625 -6.375,4.875 -6.375,7.125 0,1.125 0.375,1.875 1.5,2.625 h 19.875 v 112.875 c 0,31.5 11.25,47.625 33,47.625 18.75,0 33,-9 45.375,-28.5 z m 362.6242,-219.375 h -87 v 7.125 c 30.375,1.875 35.25,10.125 35.25,48.75 v 98.625 c 0,30.375 -1.5,45.375 -13.875,60.375 -12,13.875 -33,22.125 -57,22.125 -21.375,0 -37.125,-6.375 -48,-16.875 -15,-14.625 -16.5,-31.5 -16.5,-60.75 v -117 c 0,-28.125 4.125,-32.625 34.125,-35.25 v -7.125 H 1349.43 v 7.125 c 29.625,2.25 33.75,6.375 33.75,31.5 v 116.25 c 0,39.75 9.75,66 30.375,81.375 15.375,11.625 36.375,17.25 63.75,17.25 34.5,0 60,-9.375 75.75,-27.375 16.875,-19.125 20.25,-39.375 20.25,-75.75 v -95.625 c 0,-35.625 3.75,-44.625 35.25,-47.625 z m 64.8743,135.375 c -10.5,-6.375 -16.125,-17.25 -16.125,-25.5 0,-17.625 12,-25.5 28.125,-25.5 22.5,0 33.75,12.375 42.375,46.125 h 5.625 l -1.875,-51 h -4.125 c -3,3.375 -4.5,3.75 -6,3.75 -2.625,0 -6.375,-1.125 -10.5,-3 -7.875,-3.75 -16.125,-4.125 -25.125,-4.125 -30.75,0 -51.75,16.5 -51.75,46.125 0,19.125 13.875,37.125 45,54.375 l 20.25,11.25 c 12.375,6.75 19.875,16.5 19.875,28.125 0,15.375 -12,27.75 -31.125,27.75 -25.875,0 -39.75,-16.5 -47.625,-52.875 h -6 v 58.875 h 4.875 c 2.25,-3.75 4.5,-4.5 9,-4.5 4.125,0 8.25,0.375 17.25,3.375 8.625,3 19.5,3.375 27.375,3.375 28.5,0 52.5,-21.75 52.5,-46.875 0,-21.375 -9,-31.5 -33,-46.125 z"
     id="text4"
     style="font-size:375px;font-family:STIXGeneral;-inkscape-font-specification:'STIXGeneral, Normal'"
     inkscape:transform-center-x="21.186441"
     aria-label="About Us" />
</svg>
