<?xml version="1.0" encoding="UTF-8" standalone="no"?>
<svg
   id="Layer_1"
   data-name="Layer 1"
   viewBox="0 150 2000 625"
   version="1.1"
   sodipodi:docname="ForMedicalProfessionals.svg"
   inkscape:version="1.3 (0e150ed, 2023-07-21)"
   xmlns:inkscape="http://www.inkscape.org/namespaces/inkscape"
   xmlns:sodipodi="http://sodipodi.sourceforge.net/DTD/sodipodi-0.dtd"
   xmlns="http://www.w3.org/2000/svg"
   xmlns:svg="http://www.w3.org/2000/svg">
  <sodipodi:namedview
     id="namedview4"
     pagecolor="#ffffff"
     bordercolor="#000000"
     borderopacity="0.25"
     inkscape:showpageshadow="2"
     inkscape:pageopacity="0.0"
     inkscape:pagecheckerboard="0"
     inkscape:deskcolor="#d1d1d1"
     inkscape:zoom="0.3776"
     inkscape:cx="999.73517"
     inkscape:cy="312.5"
     inkscape:window-width="1512"
     inkscape:window-height="945"
     inkscape:window-x="0"
     inkscape:window-y="37"
     inkscape:window-maximized="0"
     inkscape:current-layer="Layer_1" />
  <defs
     id="defs1">
    <style
       id="style1">&#10;      .cls-1 {&#10;        fill: #7f7f7f;&#10;      }&#10;&#10;      .cls-2 {&#10;        fill: rgb(171 216 131);&#10;      }&#10;    </style>
  </defs>
  <g
     id="g3">
    <path
       class="cls-1"
       d="m291,314.46s-.06,0-.08.01c.05,0,.08-.01.08-.01Z"
       id="path1" />
    <path
       class="cls-1"
       d="m1881.33,583.44h0"
       id="path2" />
    <path
       class="cls-1"
       d="m1398.01,692.82c23.29-.13,47.05-.13,70.34-.26,22.48-.12,43.19.21,65.68.09,20.92-.11,41.82.11,62.75,0,18.62-.1,39.82.23,58.44.13,15.57-.08,31.16.21,46.72.12,11.76-.06,22.43-.04,34.19-.11,7.46-.04,17.96,0,25.41,0,24.76.02,45.38-7.52,60.3-29.52,1.84-2.71,6.97-9.88,9.03-12.39,2.06-2.52,4.65-4.7,7.7-5.53,10.36-2.8,17.46,11.98,26.99,13.89.47.09,3.04.47,4.55.23s4.09-1.74,4.6-2.1c2.89-2.03,4.97-5.35,6.47-7.77,2-3.24,12.8-26.3,14.75-29.58,2.8-4.72,2.94-4.76,5.53-9.62,1.24-2.32-5.25,2.51-4.58-.19-7.7,6.7-4.52-2.46-9.37,6.6-1.2,2.24-9.75,20.32-11.11,22.61s-5.57,6.37-8.01,6.53c-2.6.16-5.07-1.22-7.11-2.93-5.2-4.35-9.69-9.17-16.42-10.81-8.18-1.99-14.39,2.96-20.11,8.39-6.34,6.02-12.13,12.64-17.88,19.28-2.2,2.54-4.44,5.12-7.16,7-.33.23-.67.45-1.01.66-2.33,1.4-8.52,5.41-11.12,6.1-9.55,2.53-18.78,3.07-28.58,3.09,0,0-1428.63.89-1428.63.89-3.19,0-7.47,1.36-12.35,2.81-1.99.59-8.57,2.49-9.14,2.51-34.47.65-39.87-58.01-113.49,8.75-11.01,9.98-25.65,25.27-38.69,31.6-22.67,11.02-51.2.42-59.68-16.03-17.32-33.59-9.68-62.18-5.29-74.25,3.5-9.62,26.1-55.29,36.93-77.02,1.62-3.26,4.94-4.97,8.33-4.45,16.31,2.47,36.16-4.13,57.68-21,12.65-9.91,25-21.87,35.23-34.68,0,0-.51-1.67-1.42-3.68,67.93-77.96,93.05-135.45,87.01-152.84-7.29-21.01-28.83-28.65-28.26-28.99-.08.02-.22.04-.4.09.3-2.28-.05-4.58-2.29-6.07-2.8-1.86-8.43-5.23-14.91-7.93-6.99-2.91-14.71,1.98-15.79,9.82-1.51,11.57.76,11.29.76,11.29,0,0,8.98,5.3,23.24,7.5.6.09,1.19-.06,1.77-.38,4.21-2.37,9.1-3.12,13.22-.57,4.7,2.9,10.11,7.63,13.69,15.24,6.23,13.21-7.83,46.74-48.28,99.19-1.24,1.61-2.77,3.04-4.48,4.06-.94.57-1.55,1.15-1.55,1.15l-.7.86-.29-.35s-3.23,3.07-8.76,7.42c-23.46,18.44-57.77,36.33-87.43,25.67-33.62-12.08-37.85-44.46-30.54-75.06,1.58-6.59,3.18-10.77,3.18-10.77l-.51-.22c-.03-.61-.08-1.18-.14-1.73-.22-2.05-.05-4.17.65-6.1,27.5-76.18,52.81-95.11,57.18-97.13,3.87-1.78,21.98,1.91,31.32,3.99.53.12.84.61.84,1.19.03,3.83,1.95,7.44,4.93,9.72,5.2,3.98,13.25,8.96,16.99,9.92,5.29,1.36,7.72-2.17,9.23-5.15,1.51-2.99,3.94-14.19-1.76-17.98-10.23-6.78-21.73-8.96-21.73-8.96,0,0-1.18.35-2.61,1.4-7.73-1.72-23.02-4.9-28.33-4.3-7.23.81-13.24,0-19.72,7.79-6.15,7.4-31.8,29.58-56.73,96.86-1.11.43-1.85.93-1.85.93l-7.59,22.52s.46.05,1.17.37c-3.32,10.06-5.8,18.16-7.39,24.04-2.1.26-3.81.7-3.81.7,0,0-4.69,21.7-4.34,46.55.37,26.11,6.27,46.09,16.23,59.02,3.41,4.43,3.84,10.6,1.33,15.66-3.45,6.94-7.74,15.58-12.14,24.55-23.29,47.43-46.29,85.71-17.53,141.48,13.76,26.69,53.04,38.66,82.71,24.24,32.45-15.77,62.8-70.71,101.01-57.51,20.9,7.22,35.95,21.63,58.37,11.37,4.17-1.91,12.68-1.81,17.21-1.77"
       id="path3" />
  </g>
  <path
     class="cls-2"
     d="m1894.1,622.76c38.79-22.52,73.54-46.38,70.95-74.78-1.44-15.79-11.79-25.22-25.01-27.93-.92-.19-1.82-.34-2.71-.47-13.42-1.86-23.58,3.61-30.45,13.24-3.75-10.67-11.74-19.2-24.43-20.95-1.2-.17-2.45-.27-3.73-.31-14.82-.47-26.59,6.24-31.8,18.68-10.68,25.5,13.92,60.21,47.17,92.51Z"
     id="path4" />
  <path
     d="m 269.98556,338.72116 v 6.36331 c 24.78341,2.00947 28.13252,6.0284 28.13252,30.81181 v 143.67683 c 0,28.80234 -2.00946,32.48637 -28.13252,34.49583 v 6.36331 h 93.77508 v -6.36331 c -27.12779,-1.33964 -31.48163,-5.69349 -31.48163,-31.14672 v -59.94907 c 9.0426,0.66982 14.40117,1.00473 23.10886,1.00473 35.83548,0 52.24612,-3.0142 71.67095,-20.42957 12.39171,-11.05207 19.08993,-26.12306 19.08993,-43.87334 0,-16.74555 -5.69349,-30.47691 -16.74555,-39.85441 -15.07099,-12.72662 -39.18459,-21.0994 -72.67569,-21.0994 z m 62.29345,24.44851 c 0,-9.0426 2.00946,-12.0568 11.72188,-12.0568 45.5479,0 65.64256,13.39644 65.64256,50.23665 0,30.14199 -20.09466,49.23192 -56.93487,49.23192 -6.69822,0 -12.72662,-0.33491 -20.42957,-1.00473 z m 172.4789,43.87334 -1.67455,-0.66982 c -17.75029,7.03313 -29.80708,11.72188 -49.56683,18.08519 v 5.35858 c 4.68875,-1.00474 7.70295,-1.33965 11.72188,-1.33965 8.37278,0 11.38698,5.35858 11.38698,20.09466 v 83.72776 c 0,16.74555 -2.34438,19.08992 -23.77869,23.10886 v 5.02366 h 80.37865 v -5.02366 c -22.77395,-1.00474 -28.46744,-6.0284 -28.46744,-25.11833 v -75.35498 c 0,-10.71715 14.06626,-27.4627 23.44377,-27.4627 2.00947,0 5.02367,1.67455 8.70769,5.02366 5.35857,5.02367 9.0426,6.69823 13.39644,6.69823 8.03786,0 13.06153,-5.69349 13.06153,-15.071 0,-11.05206 -7.03313,-17.75028 -18.42011,-17.75028 -14.06626,0 -23.44377,7.36804 -40.18932,31.48163 z m 213.33755,76.0248 c 0,-46.21772 -31.48163,-76.69462 -72.34078,-76.69462 -45.21298,0 -75.35497,31.14672 -75.35497,77.69935 0,46.55263 31.81654,79.70882 72.34077,79.70882 45.21299,0 75.35498,-34.16092 75.35498,-80.71355 z m -30.14199,9.04259 c 0,38.84968 -14.73608,62.29345 -39.5195,62.29345 -12.0568,0 -22.77395,-6.0284 -30.14199,-16.74555 -12.39171,-18.08519 -17.75028,-42.19879 -17.75028,-68.65675 0,-33.49111 15.74081,-53.25086 38.84967,-53.25086 14.40118,0 23.77869,6.69822 31.81655,16.74555 10.71715,13.73136 16.74555,36.84022 16.74555,59.61416 z m 47.22184,-82.3881 v 10.71715 h 27.46271 v 105.16206 c 0,24.4485 -3.68403,28.46743 -27.79762,29.80708 v 5.02366 h 87.07686 v -5.02366 c -27.4627,-1.00474 -31.14672,-4.68876 -31.14672,-29.80708 V 420.43945 h 40.85914 V 409.7223 h -40.85914 v -38.84968 c 0,-19.75975 6.0284,-29.80708 18.75502,-29.80708 7.36804,0 11.72188,3.34911 17.75028,13.06153 5.35858,9.0426 9.37751,12.05679 15.071,12.05679 8.03786,0 14.06626,-6.02839 14.06626,-13.73135 0,-12.05679 -14.73609,-20.76448 -34.83075,-20.76448 -21.09939,0 -38.51476,9.0426 -47.22245,24.11359 -8.70769,15.071 -11.38697,27.1278 -11.72188,53.92068 z m 229.7482,95.78455 c -16.41064,24.78341 -29.13726,35.16565 -51.5763,35.16565 -15.4059,0 -27.79761,-6.0284 -37.17512,-18.4201 -12.0568,-16.07573 -13.73135,-29.13726 -15.40591,-54.5905 h 103.1526 c -1.33965,-18.08519 -4.68876,-28.80235 -11.38698,-38.17985 -10.71715,-15.071 -25.78815,-23.10886 -46.55263,-23.10886 -42.19879,0 -69.32658,34.16092 -69.32658,81.38337 0,46.21772 24.11359,76.0248 63.63309,76.0248 33.4911,0 56.93487,-19.42484 69.9964,-55.93014 z m -103.4875,-48.5621 c 3.68402,-25.11833 16.74555,-38.51477 35.50056,-38.51477 22.10413,0 29.13726,11.38698 32.82128,38.51477 z m 167.78989,2.67929 c -9.3775,-5.69349 -14.4012,-15.40591 -14.4012,-22.77395 0,-15.74082 10.7172,-22.77395 25.1183,-22.77395 20.0947,0 30.142,11.05206 37.845,41.19405 h 5.0236 l -1.6745,-45.54789 h -3.684 c -2.6793,3.0142 -4.019,3.34911 -5.3586,3.34911 -2.3444,0 -5.6935,-1.00474 -9.3775,-2.67929 -7.0331,-3.34911 -14.4012,-3.68402 -22.4391,-3.68402 -27.4627,0 -46.21767,14.73608 -46.21767,41.19405 0,17.08046 12.39167,33.15619 40.18927,48.5621 l 18.0852,10.04733 c 11.0521,6.0284 17.7503,14.73608 17.7503,25.11832 0,13.73136 -10.7171,24.78342 -27.7976,24.78342 -23.1088,0 -35.5006,-14.73609 -42.53368,-47.22245 h -5.35858 v 52.58103 h 4.35384 c 2.00942,-3.34912 4.01892,-4.01894 8.03782,-4.01894 3.6841,0 7.3681,0.33491 15.406,3.0142 7.7029,2.67929 17.4153,3.0142 24.4485,3.0142 25.4532,0 46.8875,-19.42484 46.8875,-41.86388 0,-19.08992 -8.0379,-28.13252 -29.4722,-41.19405 z m 130.2804,0 c -9.3775,-5.69349 -14.4012,-15.40591 -14.4012,-22.77395 0,-15.74082 10.7172,-22.77395 25.1183,-22.77395 20.0947,0 30.142,11.05206 37.845,41.19405 h 5.0236 l -1.6745,-45.54789 h -3.684 c -2.6793,3.0142 -4.019,3.34911 -5.3586,3.34911 -2.3444,0 -5.6935,-1.00474 -9.3775,-2.67929 -7.0332,-3.34911 -14.4012,-3.68402 -22.4391,-3.68402 -27.4627,0 -46.2177,14.73608 -46.2177,41.19405 0,17.08046 12.3917,33.15619 40.1893,48.5621 l 18.0852,10.04733 c 11.0521,6.0284 17.7503,14.73608 17.7503,25.11832 0,13.73136 -10.7171,24.78342 -27.7976,24.78342 -23.1089,0 -35.5006,-14.73609 -42.5337,-47.22245 h -5.3586 v 52.58103 h 4.3539 c 2.0094,-3.34912 4.0189,-4.01894 8.0378,-4.01894 3.6841,0 7.3681,0.33491 15.4059,3.0142 7.703,2.67929 17.4154,3.0142 24.4486,3.0142 25.4532,0 46.8875,-19.42484 46.8875,-41.86388 0,-19.08992 -8.0379,-28.13252 -29.4722,-41.19405 z m 138.3182,-110.85555 c 0,-9.37751 -7.3681,-17.08046 -17.0805,-17.08046 -9.3775,0 -17.0804,7.70295 -17.0804,17.08046 0,9.71242 7.368,17.08046 16.7455,17.08046 10.0473,0 17.4154,-7.36804 17.4154,-17.08046 z m 24.4485,211.66376 v -5.02366 c -22.1041,-1.67456 -24.7834,-5.35858 -24.7834,-30.142 V 407.71283 l -1.3397,-1.33964 -51.9112,18.4201 v 5.35858 c 6.0284,-1.67456 11.0521,-1.67456 14.0663,-1.67456 8.3728,0 11.052,5.35858 11.052,21.0994 v 76.0248 c 0,25.45323 -3.3491,28.46743 -26.4579,29.80708 v 5.02366 z m 165.781,-77.36444 c 0,-46.21772 -31.4817,-76.69462 -72.3408,-76.69462 -45.213,0 -75.355,31.14672 -75.355,77.69935 0,46.55263 31.8165,79.70882 72.3408,79.70882 45.213,0 75.355,-34.16092 75.355,-80.71355 z m -30.142,9.04259 c 0,38.84968 -14.7361,62.29345 -39.5195,62.29345 -12.0568,0 -22.774,-6.0284 -30.142,-16.74555 -12.3917,-18.08519 -17.7503,-42.19879 -17.7503,-68.65675 0,-33.49111 15.7408,-53.25086 38.8497,-53.25086 14.4011,0 23.7787,6.69822 31.8165,16.74555 10.7172,13.73136 16.7456,36.84022 16.7456,59.61416 z m 202.6205,68.32185 v -5.02366 c -16.4107,-1.67456 -20.4296,-5.35858 -20.4296,-23.44377 v -74.01534 c 0,-33.15619 -14.0663,-51.57629 -39.5195,-51.57629 -15.4059,0 -30.8118,7.36804 -48.2272,27.12779 h -0.3349 v -26.12306 l -2.6793,-1.00473 c -16.4106,6.02839 -27.4627,9.71242 -45.8828,15.07099 v 5.69349 c 2.3444,-1.00473 6.0284,-1.33965 9.7124,-1.33965 9.3775,0 11.7219,5.35858 11.7219,21.76922 v 81.38338 c 0,19.75975 -3.684,25.11832 -20.7645,26.45797 v 5.02366 h 70.6662 v -5.02366 c -17.0804,-1.33965 -21.7692,-6.0284 -21.7692,-19.08993 v -92.43544 c 15.4059,-15.071 23.4438,-19.08993 34.4959,-19.08993 16.4106,0 24.4485,10.04733 24.4485,33.82601 v 66.64729 c 0,22.10413 -4.019,28.80235 -20.7645,30.142 l -0.3349,5.02366 z m 153.0536,-22.10413 c -5.6935,4.68876 -9.0426,6.36331 -14.4012,6.36331 -6.0284,0 -10.3822,-6.69822 -10.3822,-22.10412 V 458.6193 c 0,-20.42957 -1.3396,-27.4627 -9.3775,-37.17512 -8.0379,-9.71242 -20.7645,-15.07099 -39.5195,-15.07099 -15.071,0 -29.1373,4.01893 -38.5148,10.04733 -11.7219,7.36804 -17.0804,18.08519 -17.0804,26.79288 0,9.04259 7.368,15.4059 14.4011,15.4059 8.7077,0 15.4059,-7.36804 15.4059,-13.73135 0,-7.03313 -2.0094,-8.03786 -2.0094,-14.06626 0,-9.0426 10.0473,-16.41064 23.4438,-16.41064 15.0709,0 26.123,9.37751 26.123,30.14199 v 18.0852 c -37.8449,14.06626 -50.2366,20.42957 -60.284,27.12779 -13.0615,8.70768 -23.4437,21.76921 -23.4437,39.18459 0,22.10412 14.4011,34.83074 35.1656,34.83074 14.4012,0 30.8118,-4.35384 48.5621,-24.4485 h 0.3349 c 1.6746,17.75028 9.0426,24.4485 21.4343,24.4485 11.387,0 20.0947,-3.34911 30.142,-16.07573 z m -51.9112,-20.42957 c 0,9.71242 -2.0095,14.40118 -11.7219,21.0994 -5.6935,3.68402 -12.7266,5.35857 -19.4248,5.35857 -13.0615,0 -23.1089,-8.03786 -23.1089,-25.78815 0,-10.38224 3.3491,-18.4201 11.387,-25.78814 8.3728,-7.70296 22.1041,-14.73609 42.8686,-22.10413 z m 138.6526,42.5337 v -5.02366 c -21.4343,-1.33965 -25.1183,-5.69349 -25.1183,-24.1136 V 333.02767 l -1.6745,-1.33964 c -17.4154,5.69349 -29.8071,9.0426 -52.916,14.73609 v 5.35857 c 5.3586,-0.66982 9.7124,-0.66982 12.3917,-0.66982 10.7172,0 14.0663,5.35858 14.0663,21.4343 v 157.07327 c 0,18.4201 -4.6888,24.11359 -25.7882,25.78815 v 5.02366 z m 59.2792,-100.80821 c -9.3775,-5.69349 -14.4011,-15.40591 -14.4011,-22.77395 0,-15.74082 10.7171,-22.77395 25.1183,-22.77395 20.0947,0 30.142,11.05206 37.8449,41.19405 h 5.0237 l -1.6745,-45.54789 h -3.6841 c -2.6793,3.0142 -4.0189,3.34911 -5.3585,3.34911 -2.3444,0 -5.6935,-1.00474 -9.3776,-2.67929 -7.0331,-3.34911 -14.4011,-3.68402 -22.439,-3.68402 -27.4627,0 -46.2177,14.73608 -46.2177,41.19405 0,17.08046 12.3917,33.15619 40.1893,48.5621 l 18.0852,10.04733 c 11.0521,6.0284 17.7503,14.73608 17.7503,25.11832 0,13.73136 -10.7172,24.78342 -27.7976,24.78342 -23.1089,0 -35.5006,-14.73609 -42.5337,-47.22245 h -5.3586 v 52.58103 h 4.3538 c 2.0095,-3.34912 4.019,-4.01894 8.0379,-4.01894 3.684,0 7.368,0.33491 15.4059,3.0142 7.703,2.67929 17.4154,3.0142 24.4485,3.0142 25.4533,0 46.8876,-19.42484 46.8876,-41.86388 0,-19.08992 -8.0379,-28.13252 -29.4722,-41.19405 z"
     id="text4"
     style="font-size:334.911px;font-family:STIXGeneral;-inkscape-font-specification:'STIXGeneral, Normal';stroke-width:0.893096"
     transform="scale(0.89309573,1.1197008)"
     aria-label="Professionals" />
</svg>
