<?xml version="1.0" encoding="UTF-8"?>
<svg id="Layer_1" data-name="Layer 1" xmlns="http://www.w3.org/2000/svg" viewBox="0 150 2000 625">
  <defs>
    <style>
      .cls-1 {
        fill: #7f7f7f;
      }

      .cls-2 {
        fill: #be92f1;
      }
    </style>
  </defs>
  <g>
    <path class="cls-1" d="m291,314.46s-.06,0-.08.01c.05,0,.08-.01.08-.01Z"/>
    <path class="cls-1" d="m1881.33,583.44h0"/>
    <path class="cls-1" d="m1398.01,692.82c23.29-.13,47.05-.13,70.34-.26,22.48-.12,43.19.21,65.68.09,20.92-.11,41.82.11,62.75,0,18.62-.1,39.82.23,58.44.13,15.57-.08,31.16.21,46.72.12,11.76-.06,22.43-.04,34.19-.11,7.46-.04,17.96,0,25.41,0,24.76.02,45.38-7.52,60.3-29.52,1.84-2.71,6.97-9.88,9.03-12.39,2.06-2.52,4.65-4.7,7.7-5.53,10.36-2.8,17.46,11.98,26.99,13.89.47.09,3.04.47,4.55.23s4.09-1.74,4.6-2.1c2.89-2.03,4.97-5.35,6.47-7.77,2-3.24,12.8-26.3,14.75-29.58,2.8-4.72,2.94-4.76,5.53-9.62,1.24-2.32-5.25,2.51-4.58-.19-7.7,6.7-4.52-2.46-9.37,6.6-1.2,2.24-9.75,20.32-11.11,22.61s-5.57,6.37-8.01,6.53c-2.6.16-5.07-1.22-7.11-2.93-5.2-4.35-9.69-9.17-16.42-10.81-8.18-1.99-14.39,2.96-20.11,8.39-6.34,6.02-12.13,12.64-17.88,19.28-2.2,2.54-4.44,5.12-7.16,7-.33.23-.67.45-1.01.66-2.33,1.4-8.52,5.41-11.12,6.1-9.55,2.53-18.78,3.07-28.58,3.09,0,0-1428.63.89-1428.63.89-3.19,0-7.47,1.36-12.35,2.81-1.99.59-8.57,2.49-9.14,2.51-34.47.65-39.87-58.01-113.49,8.75-11.01,9.98-25.65,25.27-38.69,31.6-22.67,11.02-51.2.42-59.68-16.03-17.32-33.59-9.68-62.18-5.29-74.25,3.5-9.62,26.1-55.29,36.93-77.02,1.62-3.26,4.94-4.97,8.33-4.45,16.31,2.47,36.16-4.13,57.68-21,12.65-9.91,25-21.87,35.23-34.68,0,0-.51-1.67-1.42-3.68,67.93-77.96,93.05-135.45,87.01-152.84-7.29-21.01-28.83-28.65-28.26-28.99-.08.02-.22.04-.4.09.3-2.28-.05-4.58-2.29-6.07-2.8-1.86-8.43-5.23-14.91-7.93-6.99-2.91-14.71,1.98-15.79,9.82-1.51,11.57.76,11.29.76,11.29,0,0,8.98,5.3,23.24,7.5.6.09,1.19-.06,1.77-.38,4.21-2.37,9.1-3.12,13.22-.57,4.7,2.9,10.11,7.63,13.69,15.24,6.23,13.21-7.83,46.74-48.28,99.19-1.24,1.61-2.77,3.04-4.48,4.06-.94.57-1.55,1.15-1.55,1.15l-.7.86-.29-.35s-3.23,3.07-8.76,7.42c-23.46,18.44-57.77,36.33-87.43,25.67-33.62-12.08-37.85-44.46-30.54-75.06,1.58-6.59,3.18-10.77,3.18-10.77l-.51-.22c-.03-.61-.08-1.18-.14-1.73-.22-2.05-.05-4.17.65-6.1,27.5-76.18,52.81-95.11,57.18-97.13,3.87-1.78,21.98,1.91,31.32,3.99.53.12.84.61.84,1.19.03,3.83,1.95,7.44,4.93,9.72,5.2,3.98,13.25,8.96,16.99,9.92,5.29,1.36,7.72-2.17,9.23-5.15,1.51-2.99,3.94-14.19-1.76-17.98-10.23-6.78-21.73-8.96-21.73-8.96,0,0-1.18.35-2.61,1.4-7.73-1.72-23.02-4.9-28.33-4.3-7.23.81-13.24,0-19.72,7.79-6.15,7.4-31.8,29.58-56.73,96.86-1.11.43-1.85.93-1.85.93l-7.59,22.52s.46.05,1.17.37c-3.32,10.06-5.8,18.16-7.39,24.04-2.1.26-3.81.7-3.81.7,0,0-4.69,21.7-4.34,46.55.37,26.11,6.27,46.09,16.23,59.02,3.41,4.43,3.84,10.6,1.33,15.66-3.45,6.94-7.74,15.58-12.14,24.55-23.29,47.43-46.29,85.71-17.53,141.48,13.76,26.69,53.04,38.66,82.71,24.24,32.45-15.77,62.8-70.71,101.01-57.51,20.9,7.22,35.95,21.63,58.37,11.37,4.17-1.91,12.68-1.81,17.21-1.77"/>
  </g>
  <g>
    <path d="m221.02,571.27c19.41,16.38,42.51,24.68,69.3,24.91,31.69-.46,47.76-12.07,48.21-34.83.23-18.64-10.37-29.85-31.78-33.63-9.82-1.37-20.58-2.92-32.29-4.63-20.97-3.54-36.92-11.49-47.84-23.85-11.27-12.7-16.9-28.14-16.9-46.32,0-21.84,7.07-39.46,21.22-52.84,13.7-13.27,33.14-20.02,58.32-20.25,30.3.69,56.65,9.29,79.04,25.82l-20.58,31.12c-18.3-12.37-38.44-18.78-60.41-19.24-11.38,0-20.86,2.92-28.45,8.75-7.92,6.06-12,15.1-12.22,27.11,0,7.2,2.73,13.72,8.2,19.56,5.47,5.95,14.22,10.07,26.26,12.35,6.69,1.14,15.83,2.46,27.44,3.95,22.86,3.2,39.76,11.61,50.69,25.22,10.82,13.38,16.23,28.94,16.23,46.67-1.22,47.81-29.75,72.06-85.57,72.74-36.1,0-67.13-11.37-93.09-34.11l24.23-28.49Z"/>
    <path d="m585.36,562c-5.36,23.16-15.56,40.96-30.62,53.4-15.51,12.32-33.85,18.48-55.05,18.48-19.17-.46-35.17-5.25-47.98-14.4-13.04-8.8-22.51-18.97-28.42-30.51-1.79-3.77-3.4-7.37-4.85-10.8-1.34-3.54-2.46-8-3.35-13.37-1.67-10.05-2.51-29.37-2.51-57.94s.84-48.45,2.51-58.28c1.78-9.83,4.51-17.77,8.19-23.83,5.91-11.54,15.39-21.83,28.43-30.85,12.82-9.14,28.82-13.83,48-14.06,23.53.23,42.7,7.36,57.53,21.39,14.83,14.15,24.19,31.66,28.1,52.54h-39.2c-3.02-10.08-8.49-18.67-16.42-25.77-8.26-6.75-18.31-10.25-30.15-10.48-8.71.23-16.19,2-22.45,5.32-6.37,3.44-11.5,7.73-15.41,12.88-4.8,5.38-7.98,12.31-9.55,20.79-1.79,8.93-2.68,25.71-2.68,50.33s.89,41.28,2.68,49.99c1.56,8.7,4.75,15.75,9.55,21.13,3.91,5.15,9.05,9.33,15.42,12.54,6.25,3.78,13.74,5.67,22.46,5.67,20.78,0,36.31-11.39,46.59-34.18h39.15Z"/>
    <path d="m617.55,381.9h95.28c20.32,0,36.89,5.49,49.73,16.46,15.45,12.46,23.51,30.23,24.18,53.31-.45,33.94-16.14,57.02-47.09,69.25l56.44,110.9h-43.86l-50.47-106.81h-47.28v106.81h-36.92v-249.92Zm36.92,109.55h56c13.86-.23,24.26-4.35,31.19-12.37,6.82-7.45,10.23-16.62,10.23-27.5-.22-13.06-4.3-22.51-12.24-28.36-6.26-5.16-15.31-7.73-27.16-7.73h-58.01v75.97Z"/>
    <path d="m833.22,381.9h155.78v35.64h-118.86v71.51h101.46v33.57h-101.46v73.57h118.86v35.64h-155.78v-249.92Z"/>
    <path d="m1029.89,381.9h155.78v35.64h-118.86v71.51h101.46v33.57h-101.46v73.57h118.86v35.64h-155.78v-249.92Z"/>
    <path d="m1226.56,381.9h34.8l110.43,177.67h.67v-177.67h36.92v249.92h-34.97l-110.27-177.67h-.67v177.67h-36.92v-249.92Z"/>
    <path d="m1468.47,381.9h155.78v35.64h-118.86v71.51h101.46v33.57h-101.46v73.57h118.86v35.64h-155.78v-249.92Z"/>
    <path d="m1665.14,381.9h85.32c33.01.23,57.77,14.29,74.28,42.17,5.9,9.37,9.63,19.2,11.19,29.48,1.23,10.28,1.84,28.06,1.84,53.31,0,26.86-.95,45.6-2.84,56.22-.89,5.37-2.23,10.17-4.01,14.4-1.9,4.11-4.18,8.4-6.86,12.86-7.14,11.77-17.06,21.49-29.78,29.14-12.6,8.23-28.05,12.34-46.34,12.34h-82.81v-249.92Zm36.92,214.28h44.21c20.76,0,35.83-7.27,45.21-21.82,4.13-5.38,6.75-12.19,7.87-20.44,1-8.13,1.51-23.36,1.51-45.69s-.5-37.33-1.51-46.72c-1.34-9.39-4.52-17-9.54-22.84-10.27-14.54-24.79-21.58-43.54-21.13h-44.21v178.65Z"/>
  </g>
  <path class="cls-2" d="m1894.1,622.76c38.79-22.52,73.54-46.38,70.95-74.78-1.44-15.79-11.79-25.22-25.01-27.93-.92-.19-1.82-.34-2.71-.47-13.42-1.86-23.58,3.61-30.45,13.24-3.75-10.67-11.74-19.2-24.43-20.95-1.2-.17-2.45-.27-3.73-.31-14.82-.47-26.59,6.24-31.8,18.68-10.68,25.5,13.92,60.21,47.17,92.51Z"/>
</svg>