<?xml version="1.0" encoding="UTF-8" standalone="no"?>
<svg
   id="Layer_1"
   data-name="Layer 1"
   viewBox="0 150 2000 625"
   style="width:375px; height:100px"
   version="1.1"
   sodipodi:docname="Pamphlet.svg"
   inkscape:version="1.3 (0e150ed, 2023-07-21)"
   xmlns:inkscape="http://www.inkscape.org/namespaces/inkscape"
   xmlns:sodipodi="http://sodipodi.sourceforge.net/DTD/sodipodi-0.dtd"
   xmlns="http://www.w3.org/2000/svg"
   xmlns:svg="http://www.w3.org/2000/svg">
  <sodipodi:namedview
     id="namedview4"
     pagecolor="#ffffff"
     bordercolor="#000000"
     borderopacity="0.25"
     inkscape:showpageshadow="2"
     inkscape:pageopacity="0.0"
     inkscape:pagecheckerboard="0"
     inkscape:deskcolor="#d1d1d1"
     inkscape:zoom="0.3776"
     inkscape:cx="999.73517"
     inkscape:cy="312.5"
     inkscape:window-width="1512"
     inkscape:window-height="853"
     inkscape:window-x="0"
     inkscape:window-y="38"
     inkscape:window-maximized="0"
     inkscape:current-layer="Layer_1" />
  <defs
     id="defs1">
    <style
       id="style1">&#10;      .cls-1 {&#10;        fill: #7f7f7f;&#10;      }&#10;&#10;      .cls-2 {&#10;        fill: rgb(146,190,241);&#10;      }&#10;    </style>
  </defs>
  <g
     id="g3">
    <path
       class="cls-1"
       d="m291,314.46s-.06,0-.08.01c.05,0,.08-.01.08-.01Z"
       id="path1" />
    <path
       class="cls-1"
       d="m1881.33,583.44h0"
       id="path2" />
    <path
       class="cls-1"
       d="m1398.01,692.82c23.29-.13,47.05-.13,70.34-.26,22.48-.12,43.19.21,65.68.09,20.92-.11,41.82.11,62.75,0,18.62-.1,39.82.23,58.44.13,15.57-.08,31.16.21,46.72.12,11.76-.06,22.43-.04,34.19-.11,7.46-.04,17.96,0,25.41,0,24.76.02,45.38-7.52,60.3-29.52,1.84-2.71,6.97-9.88,9.03-12.39,2.06-2.52,4.65-4.7,7.7-5.53,10.36-2.8,17.46,11.98,26.99,13.89.47.09,3.04.47,4.55.23s4.09-1.74,4.6-2.1c2.89-2.03,4.97-5.35,6.47-7.77,2-3.24,12.8-26.3,14.75-29.58,2.8-4.72,2.94-4.76,5.53-9.62,1.24-2.32-5.25,2.51-4.58-.19-7.7,6.7-4.52-2.46-9.37,6.6-1.2,2.24-9.75,20.32-11.11,22.61s-5.57,6.37-8.01,6.53c-2.6.16-5.07-1.22-7.11-2.93-5.2-4.35-9.69-9.17-16.42-10.81-8.18-1.99-14.39,2.96-20.11,8.39-6.34,6.02-12.13,12.64-17.88,19.28-2.2,2.54-4.44,5.12-7.16,7-.33.23-.67.45-1.01.66-2.33,1.4-8.52,5.41-11.12,6.1-9.55,2.53-18.78,3.07-28.58,3.09,0,0-1428.63.89-1428.63.89-3.19,0-7.47,1.36-12.35,2.81-1.99.59-8.57,2.49-9.14,2.51-34.47.65-39.87-58.01-113.49,8.75-11.01,9.98-25.65,25.27-38.69,31.6-22.67,11.02-51.2.42-59.68-16.03-17.32-33.59-9.68-62.18-5.29-74.25,3.5-9.62,26.1-55.29,36.93-77.02,1.62-3.26,4.94-4.97,8.33-4.45,16.31,2.47,36.16-4.13,57.68-21,12.65-9.91,25-21.87,35.23-34.68,0,0-.51-1.67-1.42-3.68,67.93-77.96,93.05-135.45,87.01-152.84-7.29-21.01-28.83-28.65-28.26-28.99-.08.02-.22.04-.4.09.3-2.28-.05-4.58-2.29-6.07-2.8-1.86-8.43-5.23-14.91-7.93-6.99-2.91-14.71,1.98-15.79,9.82-1.51,11.57.76,11.29.76,11.29,0,0,8.98,5.3,23.24,7.5.6.09,1.19-.06,1.77-.38,4.21-2.37,9.1-3.12,13.22-.57,4.7,2.9,10.11,7.63,13.69,15.24,6.23,13.21-7.83,46.74-48.28,99.19-1.24,1.61-2.77,3.04-4.48,4.06-.94.57-1.55,1.15-1.55,1.15l-.7.86-.29-.35s-3.23,3.07-8.76,7.42c-23.46,18.44-57.77,36.33-87.43,25.67-33.62-12.08-37.85-44.46-30.54-75.06,1.58-6.59,3.18-10.77,3.18-10.77l-.51-.22c-.03-.61-.08-1.18-.14-1.73-.22-2.05-.05-4.17.65-6.1,27.5-76.18,52.81-95.11,57.18-97.13,3.87-1.78,21.98,1.91,31.32,3.99.53.12.84.61.84,1.19.03,3.83,1.95,7.44,4.93,9.72,5.2,3.98,13.25,8.96,16.99,9.92,5.29,1.36,7.72-2.17,9.23-5.15,1.51-2.99,3.94-14.19-1.76-17.98-10.23-6.78-21.73-8.96-21.73-8.96,0,0-1.18.35-2.61,1.4-7.73-1.72-23.02-4.9-28.33-4.3-7.23.81-13.24,0-19.72,7.79-6.15,7.4-31.8,29.58-56.73,96.86-1.11.43-1.85.93-1.85.93l-7.59,22.52s.46.05,1.17.37c-3.32,10.06-5.8,18.16-7.39,24.04-2.1.26-3.81.7-3.81.7,0,0-4.69,21.7-4.34,46.55.37,26.11,6.27,46.09,16.23,59.02,3.41,4.43,3.84,10.6,1.33,15.66-3.45,6.94-7.74,15.58-12.14,24.55-23.29,47.43-46.29,85.71-17.53,141.48,13.76,26.69,53.04,38.66,82.71,24.24,32.45-15.77,62.8-70.71,101.01-57.51,20.9,7.22,35.95,21.63,58.37,11.37,4.17-1.91,12.68-1.81,17.21-1.77"
       id="path3" />
  </g>
  <path
     class="cls-2"
     d="m1894.1,622.76c38.79-22.52,73.54-46.38,70.95-74.78-1.44-15.79-11.79-25.22-25.01-27.93-.92-.19-1.82-.34-2.71-.47-13.42-1.86-23.58,3.61-30.45,13.24-3.75-10.67-11.74-19.2-24.43-20.95-1.2-.17-2.45-.27-3.73-.31-14.82-.47-26.59,6.24-31.8,18.68-10.68,25.5,13.92,60.21,47.17,92.51Z"
     id="path4" />
  <path
     d="m 356.02899,384.00403 v 7.125 c 27.75,2.25 31.5,6.75 31.5,34.5 v 160.875 c 0,32.25 -2.25,36.375 -31.5,38.625 v 7.125 h 105 v -7.125 c -30.375,-1.5 -35.25,-6.375 -35.25,-34.875 v -67.125 c 10.125,0.75 16.125,1.125 25.875,1.125 40.125,0 58.5,-3.375 80.25,-22.875 13.875,-12.375 21.375,-29.25 21.375,-49.125 0,-18.75 -6.375,-34.125 -18.75,-44.625 -16.875,-14.25 -43.875,-23.625 -81.375,-23.625 z m 69.75,27.375 c 0,-10.125 2.25,-13.5 13.125,-13.5 51,0 73.5,15 73.5,56.25 0,33.75 -22.5,55.125 -63.75,55.125 -7.5,0 -14.25,-0.375 -22.875,-1.125 z m 295.12462,196.125 c -6.375,5.25 -10.125,7.125 -16.125,7.125 -6.75,0 -11.625,-7.5 -11.625,-24.75 v -71.625 c 0,-22.875 -1.5,-30.75 -10.5,-41.625 -9,-10.875 -23.25,-16.875 -44.25,-16.875 -16.875,0 -32.625,4.5 -43.125,11.25 -13.125,8.25 -19.125,20.25 -19.125,30 0,10.125 8.25,17.25 16.125,17.25 9.75,0 17.25,-8.25 17.25,-15.375 0,-7.875 -2.25,-9 -2.25,-15.75 0,-10.125 11.25,-18.375 26.25,-18.375 16.875,0 29.25,10.5 29.25,33.75 v 20.25 c -42.375,15.75 -56.25,22.875 -67.5,30.375 -14.625,9.75 -26.25,24.375 -26.25,43.875 0,24.75 16.125,39 39.375,39 16.125,0 34.5,-4.875 54.375,-27.375 h 0.375 c 1.875,19.875 10.125,27.375 24,27.375 12.75,0 22.5,-3.75 33.75,-18 z m -58.125,-22.875 c 0,10.875 -2.25,16.125 -13.125,23.625 -6.375,4.125 -14.25,6 -21.75,6 -14.625,0 -25.875,-9 -25.875,-28.875 0,-11.625 3.75,-20.625 12.75,-28.875 9.375,-8.625 24.75,-16.5 48,-24.75 z m 349.49939,47.625 v -5.625 l -9.75,-0.75 c -11.25002,-0.75 -16.12502,-5.625 -16.12502,-22.5 v -76.125 c 0,-44.25 -13.125,-67.5 -43.5,-67.5 -21.75,0 -40.875,9.75 -61.125,31.5 -6.75,-21.375 -19.5,-31.5 -39.75,-31.5 -16.875,0 -32.625,3.375 -57.375,28.875 h -0.75 v -27.75 l -3,-1.125 c -19.125,7.125 -31.5,11.25 -52.125,16.875 v 6.375 c 4.875,-1.125 7.875,-1.5 12,-1.5 9.75,0 13.125,6.375 13.125,24.75 v 93 c 0,21.75 -5.25,27 -26.25,27.375 v 5.625 h 83.25 v -5.625 c -19.875,-0.75 -25.5,-4.5 -25.5,-20.625 v -104.25 c 0,-0.75 2.25,-3.375 4.875,-6.375 7.5,-9 25.875,-16.125 39.75,-16.125 16.125,0 24.375,15.75 24.375,41.625 v 79.125 c 0,22.875 -4.125,25.125 -25.5,26.625 v 5.625 h 84 v -5.625 c -21.375,-0.375 -27,-5.625 -27,-30 v -94.5 c 11.25,-16.125 22.5,-22.875 40.125,-22.875 21.375,0 28.875,12.375 28.875,42 v 77.25 c 0,21.75 -3.375,25.875 -24.375,28.125 v 5.625 z m 59.6248,-171.75 -2.25,-0.75 c -19.875,7.875 -33.375,12.75 -54,19.125 v 6 c 3.375,-0.375 6,-0.375 9.375,-0.375 12.75,0 15.375,3.75 15.375,21.375 v 175.5 c 0,19.5 -4.125,23.625 -26.25,25.875 v 6.375 h 90.75 v -6.75 c -28.125,-0.375 -33,-4.5 -33,-28.125 v -58.875 c 13.5,12.375 22.125,16.125 37.875,16.125 44.625,0 78.75,-42 78.75,-96.375 0,-46.5 -26.25,-79.875 -62.625,-79.875 -21,0 -37.5,9 -54,29.625 z m 0,46.5 c 0,-11.25 21,-24.75 38.25,-24.75 27.75,0 46.125,28.5 46.125,72.375 0,41.25 -18.375,69.375 -45.375,69.375 -17.625,0 -39,-13.5 -39,-24.75 z m 310.4993,125.25 v -5.625 c -20.25,-3.75 -22.5,-6.75 -22.5,-32.625 v -74.625 c 0,-39.375 -15.375,-59.625 -46.125,-59.625 -22.125,0 -37.875,9 -55.125,31.5 v -114 l -1.875,-1.125 c -13.125,4.5 -21.75,7.125 -43.125,13.5 l -10.125,3 v 6 c 1.125,-0.375 3,-0.375 4.5,-0.375 16.125,0 19.125,3 19.125,19.125 v 176.625 c 0,26.25 -2.25,29.625 -24,32.625 v 5.625 h 81 v -5.625 c -21.75,-2.25 -25.5,-6.75 -25.5,-32.625 v -90.375 c 15.75,-17.25 27,-23.625 42,-23.625 18.375,0 27.75,13.5 27.75,39.75 v 74.25 c 0,25.875 -3.75,30.375 -25.5,32.625 v 5.625 z m 101.2493,0 v -5.625 c -24,-1.5 -28.125,-6.375 -28.125,-27 v -222 l -1.875,-1.5 c -19.5,6.375 -33.375,10.125 -59.25,16.5 v 6 c 6,-0.75 10.875,-0.75 13.875,-0.75 12,0 15.75,6 15.75,24 v 175.875 c 0,20.625 -5.25,27 -28.875,28.875 v 5.625 z m 160.8749,-61.5 c -18.375,27.75 -32.625,39.375 -57.75,39.375 -17.25,0 -31.125,-6.75 -41.625,-20.625 -13.5,-18 -15.375,-32.625 -17.25,-61.125 h 115.5 c -1.5,-20.25 -5.25,-32.25 -12.75,-42.75 -12,-16.875 -28.875,-25.875 -52.125,-25.875 -47.25,0 -77.625,38.25 -77.625,91.125 0,51.75 27,85.125 71.25,85.125 37.5,0 63.75,-21.75 78.375,-62.625 z m -115.875,-54.375 c 4.125,-28.125 18.75,-43.125 39.75,-43.125 24.75,0 32.625,12.75 36.75,43.125 z m 225.7492,87 c -8.25,9.75 -14.25,13.125 -22.5,13.125 -13.875,0 -19.5,-9.75 -19.5,-33.75 v -107.25 h 37.875 v -12 h -37.875 v -43.5 c 0,-3.75 -0.75,-4.875 -2.625,-4.875 -2.25,3.75 -5.25,7.125 -7.5,10.5 -14.25,20.625 -26.625,34.5 -36.375,40.125 -4.125,2.625 -6.375,4.875 -6.375,7.125 0,1.125 0.375,1.875 1.5,2.625 h 19.875 v 112.875 c 0,31.5 11.25,47.625 33,47.625 18.75,0 33,-9 45.375,-28.5 z"
     id="text4"
     style="font-size:375px;font-family:STIXGeneral;-inkscape-font-specification:'STIXGeneral, Normal'"
     aria-label="Pamphlet" />
</svg>
