<?xml version="1.0" encoding="utf-8"?>
<svg id="Layer_1" data-name="Layer 1" viewBox="0 150 2000 625" xmlns="http://www.w3.org/2000/svg" xmlns:bx="https://boxy-svg.com">
  <defs>
    <style>
      .cls-1 {
        fill: #7f7f7f;
      }

      .cls-2 {
        fill: #b498d3;
      }
    </style>
    <style bx:fonts="Amaranth">@import url(https://fonts.googleapis.com/css2?family=Amaranth%3Aital%2Cwght%400%2C400%3B0%2C700%3B1%2C400%3B1%2C700&amp;display=swap);</style>
  </defs>
  <g>
    <path class="cls-1" d="m291,314.46s-.06,0-.08.01c.05,0,.08-.01.08-.01Z"/>
    <path class="cls-1" d="m1881.33,583.44h0"/>
    <path class="cls-1" d="m1398.01,692.82c23.29-.13,47.05-.13,70.34-.26,22.48-.12,43.19.21,65.68.09,20.92-.11,41.82.11,62.75,0,18.62-.1,39.82.23,58.44.13,15.57-.08,31.16.21,46.72.12,11.76-.06,22.43-.04,34.19-.11,7.46-.04,17.96,0,25.41,0,24.76.02,45.38-7.52,60.3-29.52,1.84-2.71,6.97-9.88,9.03-12.39,2.06-2.52,4.65-4.7,7.7-5.53,10.36-2.8,17.46,11.98,26.99,13.89.47.09,3.04.47,4.55.23s4.09-1.74,4.6-2.1c2.89-2.03,4.97-5.35,6.47-7.77,2-3.24,12.8-26.3,14.75-29.58,2.8-4.72,2.94-4.76,5.53-9.62,1.24-2.32-5.25,2.51-4.58-.19-7.7,6.7-4.52-2.46-9.37,6.6-1.2,2.24-9.75,20.32-11.11,22.61s-5.57,6.37-8.01,6.53c-2.6.16-5.07-1.22-7.11-2.93-5.2-4.35-9.69-9.17-16.42-10.81-8.18-1.99-14.39,2.96-20.11,8.39-6.34,6.02-12.13,12.64-17.88,19.28-2.2,2.54-4.44,5.12-7.16,7-.33.23-.67.45-1.01.66-2.33,1.4-8.52,5.41-11.12,6.1-9.55,2.53-18.78,3.07-28.58,3.09,0,0-1428.63.89-1428.63.89-3.19,0-7.47,1.36-12.35,2.81-1.99.59-8.57,2.49-9.14,2.51-34.47.65-39.87-58.01-113.49,8.75-11.01,9.98-25.65,25.27-38.69,31.6-22.67,11.02-51.2.42-59.68-16.03-17.32-33.59-9.68-62.18-5.29-74.25,3.5-9.62,26.1-55.29,36.93-77.02,1.62-3.26,4.94-4.97,8.33-4.45,16.31,2.47,36.16-4.13,57.68-21,12.65-9.91,25-21.87,35.23-34.68,0,0-.51-1.67-1.42-3.68,67.93-77.96,93.05-135.45,87.01-152.84-7.29-21.01-28.83-28.65-28.26-28.99-.08.02-.22.04-.4.09.3-2.28-.05-4.58-2.29-6.07-2.8-1.86-8.43-5.23-14.91-7.93-6.99-2.91-14.71,1.98-15.79,9.82-1.51,11.57.76,11.29.76,11.29,0,0,8.98,5.3,23.24,7.5.6.09,1.19-.06,1.77-.38,4.21-2.37,9.1-3.12,13.22-.57,4.7,2.9,10.11,7.63,13.69,15.24,6.23,13.21-7.83,46.74-48.28,99.19-1.24,1.61-2.77,3.04-4.48,4.06-.94.57-1.55,1.15-1.55,1.15l-.7.86-.29-.35s-3.23,3.07-8.76,7.42c-23.46,18.44-57.77,36.33-87.43,25.67-33.62-12.08-37.85-44.46-30.54-75.06,1.58-6.59,3.18-10.77,3.18-10.77l-.51-.22c-.03-.61-.08-1.18-.14-1.73-.22-2.05-.05-4.17.65-6.1,27.5-76.18,52.81-95.11,57.18-97.13,3.87-1.78,21.98,1.91,31.32,3.99.53.12.84.61.84,1.19.03,3.83,1.95,7.44,4.93,9.72,5.2,3.98,13.25,8.96,16.99,9.92,5.29,1.36,7.72-2.17,9.23-5.15,1.51-2.99,3.94-14.19-1.76-17.98-10.23-6.78-21.73-8.96-21.73-8.96,0,0-1.18.35-2.61,1.4-7.73-1.72-23.02-4.9-28.33-4.3-7.23.81-13.24,0-19.72,7.79-6.15,7.4-31.8,29.58-56.73,96.86-1.11.43-1.85.93-1.85.93l-7.59,22.52s.46.05,1.17.37c-3.32,10.06-5.8,18.16-7.39,24.04-2.1.26-3.81.7-3.81.7,0,0-4.69,21.7-4.34,46.55.37,26.11,6.27,46.09,16.23,59.02,3.41,4.43,3.84,10.6,1.33,15.66-3.45,6.94-7.74,15.58-12.14,24.55-23.29,47.43-46.29,85.71-17.53,141.48,13.76,26.69,53.04,38.66,82.71,24.24,32.45-15.77,62.8-70.71,101.01-57.51,20.9,7.22,35.95,21.63,58.37,11.37,4.17-1.91,12.68-1.81,17.21-1.77"/>
  </g>
  <path class="cls-2" d="m1894.1,622.76c38.79-22.52,73.54-46.38,70.95-74.78-1.44-15.79-11.79-25.22-25.01-27.93-.92-.19-1.82-.34-2.71-.47-13.42-1.86-23.58,3.61-30.45,13.24-3.75-10.67-11.74-19.2-24.43-20.95-1.2-.17-2.45-.27-3.73-.31-14.82-.47-26.59,6.24-31.8,18.68-10.68,25.5,13.92,60.21,47.17,92.51Z"/>
  <text style="font-family: Amaranth; font-size: 375px; white-space: pre;" x="296.029" y="632.254" bx:origin="0.510464 -0.373636">Pamphlet</text>
</svg>